<svg xmlns="http://www.w3.org/2000/svg" width="141.533" height="21.915"><path fill-rule="evenodd" stroke="#ebe1e1" stroke-linecap="round" stroke-width=".945" d="M0 .293h3.633l6.972 17.403L17.578.293h3.648v21.328h-2.813v-8.305l.264-8.965-7.002 17.27H9.521L2.534 4.395l.279 8.921v8.305H0V.293Zm112.339 0h3.633l6.972 17.403L129.917.293h3.647v21.328h-2.812v-8.305l.264-8.965-7.002 17.27h-2.154l-6.987-17.226.278 8.921v8.305h-2.812V.293ZM48.501 6.46h-2.827q0-1.933-1.231-3.039a4.035 4.035 0 0 0-1.565-.855q-.616-.185-1.355-.234a8.341 8.341 0 0 0-.551-.017 7.621 7.621 0 0 0-1.267.098q-.672.114-1.214.358a3.67 3.67 0 0 0-.764.459q-1.164.916-1.164 2.542a2.685 2.685 0 0 0 .892 2.017 3.781 3.781 0 0 0 .213.187q.933.76 2.971 1.411a23.668 23.668 0 0 0 .794.237 27.425 27.425 0 0 1 1.549.482q1.579.547 2.611 1.166a7.805 7.805 0 0 1 1.129.814q.634.554 1.041 1.197a4.832 4.832 0 0 1 .057.091 4.995 4.995 0 0 1 .654 1.853 6.493 6.493 0 0 1 .071.974 5.352 5.352 0 0 1-.408 2.121q-.5 1.173-1.614 2.032-2.021 1.56-5.405 1.56a10.078 10.078 0 0 1-3.802-.715 9.721 9.721 0 0 1-.299-.127 7.943 7.943 0 0 1-1.594-.926 6.245 6.245 0 0 1-1.343-1.381 5.63 5.63 0 0 1-1.033-3.325h2.827a4.203 4.203 0 0 0 .231 1.424 3.579 3.579 0 0 0 1.197 1.63q1.428 1.121 3.816 1.121a8.759 8.759 0 0 0 1.29-.089q1.308-.195 2.123-.82 1.187-.908 1.187-2.475a3.579 3.579 0 0 0-.142-1.035 2.718 2.718 0 0 0-.957-1.39q-1.098-.857-3.984-1.691a22.84 22.84 0 0 1-1.975-.66q-1.945-.758-3.08-1.711a6.242 6.242 0 0 1-.211-.186 5 5 0 0 1-1.344-1.96 5.114 5.114 0 0 1-.304-1.782 5.098 5.098 0 0 1 1.654-3.851 6.589 6.589 0 0 1 .36-.317A7.069 7.069 0 0 1 38.703.237 10.29 10.29 0 0 1 40.972 0a9.71 9.71 0 0 1 2.2.24 7.906 7.906 0 0 1 1.718.61 6.835 6.835 0 0 1 1.77 1.236 6.114 6.114 0 0 1 .896 1.108 5.993 5.993 0 0 1 .945 3.266Zm35.273 3.003v2.3h-9.243v7.559h10.738v2.299h-13.55V.293h13.403v2.315H74.531v6.855h9.243ZM65.962 21.621l-2.036-5.566H54.99l-2.007 5.566h-2.9L58.228.293h2.46l8.16 21.328h-2.886ZM91.597.293v19.029h10.107v2.299H88.77V.293h2.827Zm-62.388 0v21.328h-2.813V.293h2.813Zm30.249 3.472L55.84 13.74h7.251l-3.633-9.975Zm78.786 15.865a1.952 1.952 0 0 0-.08.57 2.065 2.065 0 0 0 .005.145 1.571 1.571 0 0 0 .413.983 1.238 1.238 0 0 0 .278.226q.382.228.974.228a2.838 2.838 0 0 0 .178-.005q.259-.016.475-.081a1.377 1.377 0 0 0 .614-.368 1.521 1.521 0 0 0 .337-.544 1.733 1.733 0 0 0 .095-.584 2.146 2.146 0 0 0-.007-.182 1.62 1.62 0 0 0-.425-.989q-.432-.469-1.267-.469a2.777 2.777 0 0 0-.151.004q-.262.014-.479.079a1.321 1.321 0 0 0-.622.386 1.589 1.589 0 0 0-.338.601Z" font-size="12" style="stroke:#ebe1e1;stroke-width:.25mm;" vector-effect="non-scaling-stroke"/></svg>